<svg xmlns="http://www.w3.org/2000/svg" xmlns:xlink="http://www.w3.org/1999/xlink" width="1301.125" height="1341.993" viewBox="0 0 1301.125 1341.993">
  <defs>
    <clipPath id="clip-path">
      <rect width="193" height="190" fill="none"/>
    </clipPath>
  </defs>
  <g id="Images" transform="translate(-753.937 356.43)">
    <g id="Symbol_5_1" data-name="Symbol 5 – 1" transform="translate(867 244)" clip-path="url(#clip-path)">
      <g id="Repeat_Grid_1" data-name="Repeat Grid 1" clip-path="url(#clip-path)">
        <g transform="translate(-636 -168)">
          <circle id="Ellipse_6" data-name="Ellipse 6" cx="1.5" cy="1.5" r="1.5" transform="translate(636 168)" fill="#aeaeae"/>
        </g>
        <g transform="translate(-613 -168)">
          <circle id="Ellipse_6-2" data-name="Ellipse 6" cx="1.5" cy="1.5" r="1.5" transform="translate(636 168)" fill="#aeaeae"/>
        </g>
        <g transform="translate(-590 -168)">
          <circle id="Ellipse_6-3" data-name="Ellipse 6" cx="1.5" cy="1.5" r="1.5" transform="translate(636 168)" fill="#aeaeae"/>
        </g>
        <g transform="translate(-567 -168)">
          <circle id="Ellipse_6-4" data-name="Ellipse 6" cx="1.5" cy="1.5" r="1.5" transform="translate(636 168)" fill="#aeaeae"/>
        </g>
        <g transform="translate(-544 -168)">
          <circle id="Ellipse_6-5" data-name="Ellipse 6" cx="1.5" cy="1.5" r="1.5" transform="translate(636 168)" fill="#aeaeae"/>
        </g>
        <g transform="translate(-521 -168)">
          <circle id="Ellipse_6-6" data-name="Ellipse 6" cx="1.5" cy="1.5" r="1.5" transform="translate(636 168)" fill="#aeaeae"/>
        </g>
        <g transform="translate(-498 -168)">
          <circle id="Ellipse_6-7" data-name="Ellipse 6" cx="1.5" cy="1.5" r="1.5" transform="translate(636 168)" fill="#aeaeae"/>
        </g>
        <g transform="translate(-475 -168)">
          <circle id="Ellipse_6-8" data-name="Ellipse 6" cx="1.5" cy="1.5" r="1.5" transform="translate(636 168)" fill="#aeaeae"/>
        </g>
        <g transform="translate(-452 -168)">
          <circle id="Ellipse_6-9" data-name="Ellipse 6" cx="1.5" cy="1.5" r="1.5" transform="translate(636 168)" fill="#aeaeae"/>
        </g>
        <g transform="translate(-636 -145)">
          <circle id="Ellipse_6-10" data-name="Ellipse 6" cx="1.5" cy="1.5" r="1.5" transform="translate(636 168)" fill="#aeaeae"/>
        </g>
        <g transform="translate(-613 -145)">
          <circle id="Ellipse_6-11" data-name="Ellipse 6" cx="1.5" cy="1.5" r="1.5" transform="translate(636 168)" fill="#aeaeae"/>
        </g>
        <g transform="translate(-590 -145)">
          <circle id="Ellipse_6-12" data-name="Ellipse 6" cx="1.5" cy="1.5" r="1.5" transform="translate(636 168)" fill="#aeaeae"/>
        </g>
        <g transform="translate(-567 -145)">
          <circle id="Ellipse_6-13" data-name="Ellipse 6" cx="1.5" cy="1.5" r="1.5" transform="translate(636 168)" fill="#aeaeae"/>
        </g>
        <g transform="translate(-544 -145)">
          <circle id="Ellipse_6-14" data-name="Ellipse 6" cx="1.5" cy="1.5" r="1.5" transform="translate(636 168)" fill="#aeaeae"/>
        </g>
        <g transform="translate(-521 -145)">
          <circle id="Ellipse_6-15" data-name="Ellipse 6" cx="1.5" cy="1.5" r="1.5" transform="translate(636 168)" fill="#aeaeae"/>
        </g>
        <g transform="translate(-498 -145)">
          <circle id="Ellipse_6-16" data-name="Ellipse 6" cx="1.5" cy="1.5" r="1.5" transform="translate(636 168)" fill="#aeaeae"/>
        </g>
        <g transform="translate(-475 -145)">
          <circle id="Ellipse_6-17" data-name="Ellipse 6" cx="1.5" cy="1.5" r="1.5" transform="translate(636 168)" fill="#aeaeae"/>
        </g>
        <g transform="translate(-452 -145)">
          <circle id="Ellipse_6-18" data-name="Ellipse 6" cx="1.5" cy="1.5" r="1.5" transform="translate(636 168)" fill="#aeaeae"/>
        </g>
        <g transform="translate(-636 -122)">
          <circle id="Ellipse_6-19" data-name="Ellipse 6" cx="1.5" cy="1.5" r="1.5" transform="translate(636 168)" fill="#aeaeae"/>
        </g>
        <g transform="translate(-613 -122)">
          <circle id="Ellipse_6-20" data-name="Ellipse 6" cx="1.5" cy="1.5" r="1.5" transform="translate(636 168)" fill="#aeaeae"/>
        </g>
        <g transform="translate(-590 -122)">
          <circle id="Ellipse_6-21" data-name="Ellipse 6" cx="1.5" cy="1.5" r="1.5" transform="translate(636 168)" fill="#aeaeae"/>
        </g>
        <g transform="translate(-567 -122)">
          <circle id="Ellipse_6-22" data-name="Ellipse 6" cx="1.5" cy="1.5" r="1.5" transform="translate(636 168)" fill="#aeaeae"/>
        </g>
        <g transform="translate(-544 -122)">
          <circle id="Ellipse_6-23" data-name="Ellipse 6" cx="1.5" cy="1.5" r="1.5" transform="translate(636 168)" fill="#aeaeae"/>
        </g>
        <g transform="translate(-521 -122)">
          <circle id="Ellipse_6-24" data-name="Ellipse 6" cx="1.5" cy="1.5" r="1.5" transform="translate(636 168)" fill="#aeaeae"/>
        </g>
        <g transform="translate(-498 -122)">
          <circle id="Ellipse_6-25" data-name="Ellipse 6" cx="1.5" cy="1.5" r="1.5" transform="translate(636 168)" fill="#aeaeae"/>
        </g>
        <g transform="translate(-475 -122)">
          <circle id="Ellipse_6-26" data-name="Ellipse 6" cx="1.5" cy="1.5" r="1.5" transform="translate(636 168)" fill="#aeaeae"/>
        </g>
        <g transform="translate(-452 -122)">
          <circle id="Ellipse_6-27" data-name="Ellipse 6" cx="1.5" cy="1.5" r="1.5" transform="translate(636 168)" fill="#aeaeae"/>
        </g>
        <g transform="translate(-636 -99)">
          <circle id="Ellipse_6-28" data-name="Ellipse 6" cx="1.5" cy="1.5" r="1.5" transform="translate(636 168)" fill="#aeaeae"/>
        </g>
        <g transform="translate(-613 -99)">
          <circle id="Ellipse_6-29" data-name="Ellipse 6" cx="1.5" cy="1.5" r="1.5" transform="translate(636 168)" fill="#aeaeae"/>
        </g>
        <g transform="translate(-590 -99)">
          <circle id="Ellipse_6-30" data-name="Ellipse 6" cx="1.5" cy="1.5" r="1.5" transform="translate(636 168)" fill="#aeaeae"/>
        </g>
        <g transform="translate(-567 -99)">
          <circle id="Ellipse_6-31" data-name="Ellipse 6" cx="1.5" cy="1.5" r="1.5" transform="translate(636 168)" fill="#aeaeae"/>
        </g>
        <g transform="translate(-544 -99)">
          <circle id="Ellipse_6-32" data-name="Ellipse 6" cx="1.5" cy="1.5" r="1.5" transform="translate(636 168)" fill="#aeaeae"/>
        </g>
        <g transform="translate(-521 -99)">
          <circle id="Ellipse_6-33" data-name="Ellipse 6" cx="1.5" cy="1.5" r="1.5" transform="translate(636 168)" fill="#aeaeae"/>
        </g>
        <g transform="translate(-498 -99)">
          <circle id="Ellipse_6-34" data-name="Ellipse 6" cx="1.5" cy="1.5" r="1.5" transform="translate(636 168)" fill="#aeaeae"/>
        </g>
        <g transform="translate(-475 -99)">
          <circle id="Ellipse_6-35" data-name="Ellipse 6" cx="1.5" cy="1.5" r="1.5" transform="translate(636 168)" fill="#aeaeae"/>
        </g>
        <g transform="translate(-452 -99)">
          <circle id="Ellipse_6-36" data-name="Ellipse 6" cx="1.5" cy="1.5" r="1.5" transform="translate(636 168)" fill="#aeaeae"/>
        </g>
        <g transform="translate(-636 -76)">
          <circle id="Ellipse_6-37" data-name="Ellipse 6" cx="1.5" cy="1.5" r="1.5" transform="translate(636 168)" fill="#aeaeae"/>
        </g>
        <g transform="translate(-613 -76)">
          <circle id="Ellipse_6-38" data-name="Ellipse 6" cx="1.5" cy="1.5" r="1.5" transform="translate(636 168)" fill="#aeaeae"/>
        </g>
        <g transform="translate(-590 -76)">
          <circle id="Ellipse_6-39" data-name="Ellipse 6" cx="1.5" cy="1.5" r="1.5" transform="translate(636 168)" fill="#aeaeae"/>
        </g>
        <g transform="translate(-567 -76)">
          <circle id="Ellipse_6-40" data-name="Ellipse 6" cx="1.5" cy="1.5" r="1.5" transform="translate(636 168)" fill="#aeaeae"/>
        </g>
        <g transform="translate(-544 -76)">
          <circle id="Ellipse_6-41" data-name="Ellipse 6" cx="1.5" cy="1.5" r="1.5" transform="translate(636 168)" fill="#aeaeae"/>
        </g>
        <g transform="translate(-521 -76)">
          <circle id="Ellipse_6-42" data-name="Ellipse 6" cx="1.5" cy="1.5" r="1.5" transform="translate(636 168)" fill="#aeaeae"/>
        </g>
        <g transform="translate(-498 -76)">
          <circle id="Ellipse_6-43" data-name="Ellipse 6" cx="1.5" cy="1.5" r="1.5" transform="translate(636 168)" fill="#aeaeae"/>
        </g>
        <g transform="translate(-475 -76)">
          <circle id="Ellipse_6-44" data-name="Ellipse 6" cx="1.5" cy="1.5" r="1.5" transform="translate(636 168)" fill="#aeaeae"/>
        </g>
        <g transform="translate(-452 -76)">
          <circle id="Ellipse_6-45" data-name="Ellipse 6" cx="1.5" cy="1.5" r="1.5" transform="translate(636 168)" fill="#aeaeae"/>
        </g>
        <g transform="translate(-636 -53)">
          <circle id="Ellipse_6-46" data-name="Ellipse 6" cx="1.5" cy="1.5" r="1.5" transform="translate(636 168)" fill="#aeaeae"/>
        </g>
        <g transform="translate(-613 -53)">
          <circle id="Ellipse_6-47" data-name="Ellipse 6" cx="1.5" cy="1.5" r="1.5" transform="translate(636 168)" fill="#aeaeae"/>
        </g>
        <g transform="translate(-590 -53)">
          <circle id="Ellipse_6-48" data-name="Ellipse 6" cx="1.5" cy="1.5" r="1.5" transform="translate(636 168)" fill="#aeaeae"/>
        </g>
        <g transform="translate(-567 -53)">
          <circle id="Ellipse_6-49" data-name="Ellipse 6" cx="1.5" cy="1.5" r="1.5" transform="translate(636 168)" fill="#aeaeae"/>
        </g>
        <g transform="translate(-544 -53)">
          <circle id="Ellipse_6-50" data-name="Ellipse 6" cx="1.5" cy="1.5" r="1.5" transform="translate(636 168)" fill="#aeaeae"/>
        </g>
        <g transform="translate(-521 -53)">
          <circle id="Ellipse_6-51" data-name="Ellipse 6" cx="1.5" cy="1.5" r="1.5" transform="translate(636 168)" fill="#aeaeae"/>
        </g>
        <g transform="translate(-498 -53)">
          <circle id="Ellipse_6-52" data-name="Ellipse 6" cx="1.5" cy="1.5" r="1.5" transform="translate(636 168)" fill="#aeaeae"/>
        </g>
        <g transform="translate(-475 -53)">
          <circle id="Ellipse_6-53" data-name="Ellipse 6" cx="1.5" cy="1.5" r="1.5" transform="translate(636 168)" fill="#aeaeae"/>
        </g>
        <g transform="translate(-452 -53)">
          <circle id="Ellipse_6-54" data-name="Ellipse 6" cx="1.5" cy="1.5" r="1.5" transform="translate(636 168)" fill="#aeaeae"/>
        </g>
        <g transform="translate(-636 -30)">
          <circle id="Ellipse_6-55" data-name="Ellipse 6" cx="1.5" cy="1.5" r="1.5" transform="translate(636 168)" fill="#aeaeae"/>
        </g>
        <g transform="translate(-613 -30)">
          <circle id="Ellipse_6-56" data-name="Ellipse 6" cx="1.5" cy="1.5" r="1.5" transform="translate(636 168)" fill="#aeaeae"/>
        </g>
        <g transform="translate(-590 -30)">
          <circle id="Ellipse_6-57" data-name="Ellipse 6" cx="1.5" cy="1.5" r="1.5" transform="translate(636 168)" fill="#aeaeae"/>
        </g>
        <g transform="translate(-567 -30)">
          <circle id="Ellipse_6-58" data-name="Ellipse 6" cx="1.5" cy="1.5" r="1.5" transform="translate(636 168)" fill="#aeaeae"/>
        </g>
        <g transform="translate(-544 -30)">
          <circle id="Ellipse_6-59" data-name="Ellipse 6" cx="1.5" cy="1.5" r="1.5" transform="translate(636 168)" fill="#aeaeae"/>
        </g>
        <g transform="translate(-521 -30)">
          <circle id="Ellipse_6-60" data-name="Ellipse 6" cx="1.5" cy="1.5" r="1.5" transform="translate(636 168)" fill="#aeaeae"/>
        </g>
        <g transform="translate(-498 -30)">
          <circle id="Ellipse_6-61" data-name="Ellipse 6" cx="1.5" cy="1.5" r="1.5" transform="translate(636 168)" fill="#aeaeae"/>
        </g>
        <g transform="translate(-475 -30)">
          <circle id="Ellipse_6-62" data-name="Ellipse 6" cx="1.5" cy="1.5" r="1.5" transform="translate(636 168)" fill="#aeaeae"/>
        </g>
        <g transform="translate(-452 -30)">
          <circle id="Ellipse_6-63" data-name="Ellipse 6" cx="1.5" cy="1.5" r="1.5" transform="translate(636 168)" fill="#aeaeae"/>
        </g>
        <g transform="translate(-636 -7)">
          <circle id="Ellipse_6-64" data-name="Ellipse 6" cx="1.5" cy="1.5" r="1.5" transform="translate(636 168)" fill="#aeaeae"/>
        </g>
        <g transform="translate(-613 -7)">
          <circle id="Ellipse_6-65" data-name="Ellipse 6" cx="1.5" cy="1.5" r="1.5" transform="translate(636 168)" fill="#aeaeae"/>
        </g>
        <g transform="translate(-590 -7)">
          <circle id="Ellipse_6-66" data-name="Ellipse 6" cx="1.5" cy="1.5" r="1.5" transform="translate(636 168)" fill="#aeaeae"/>
        </g>
        <g transform="translate(-567 -7)">
          <circle id="Ellipse_6-67" data-name="Ellipse 6" cx="1.5" cy="1.5" r="1.5" transform="translate(636 168)" fill="#aeaeae"/>
        </g>
        <g transform="translate(-544 -7)">
          <circle id="Ellipse_6-68" data-name="Ellipse 6" cx="1.5" cy="1.5" r="1.5" transform="translate(636 168)" fill="#aeaeae"/>
        </g>
        <g transform="translate(-521 -7)">
          <circle id="Ellipse_6-69" data-name="Ellipse 6" cx="1.5" cy="1.5" r="1.5" transform="translate(636 168)" fill="#aeaeae"/>
        </g>
        <g transform="translate(-498 -7)">
          <circle id="Ellipse_6-70" data-name="Ellipse 6" cx="1.5" cy="1.5" r="1.5" transform="translate(636 168)" fill="#aeaeae"/>
        </g>
        <g transform="translate(-475 -7)">
          <circle id="Ellipse_6-71" data-name="Ellipse 6" cx="1.5" cy="1.5" r="1.5" transform="translate(636 168)" fill="#aeaeae"/>
        </g>
        <g transform="translate(-452 -7)">
          <circle id="Ellipse_6-72" data-name="Ellipse 6" cx="1.5" cy="1.5" r="1.5" transform="translate(636 168)" fill="#aeaeae"/>
        </g>
        <g transform="translate(-636 16)">
          <circle id="Ellipse_6-73" data-name="Ellipse 6" cx="1.5" cy="1.5" r="1.5" transform="translate(636 168)" fill="#aeaeae"/>
        </g>
        <g transform="translate(-613 16)">
          <circle id="Ellipse_6-74" data-name="Ellipse 6" cx="1.5" cy="1.5" r="1.5" transform="translate(636 168)" fill="#aeaeae"/>
        </g>
        <g transform="translate(-590 16)">
          <circle id="Ellipse_6-75" data-name="Ellipse 6" cx="1.5" cy="1.5" r="1.5" transform="translate(636 168)" fill="#aeaeae"/>
        </g>
        <g transform="translate(-567 16)">
          <circle id="Ellipse_6-76" data-name="Ellipse 6" cx="1.5" cy="1.5" r="1.5" transform="translate(636 168)" fill="#aeaeae"/>
        </g>
        <g transform="translate(-544 16)">
          <circle id="Ellipse_6-77" data-name="Ellipse 6" cx="1.5" cy="1.5" r="1.5" transform="translate(636 168)" fill="#aeaeae"/>
        </g>
        <g transform="translate(-521 16)">
          <circle id="Ellipse_6-78" data-name="Ellipse 6" cx="1.5" cy="1.5" r="1.5" transform="translate(636 168)" fill="#aeaeae"/>
        </g>
        <g transform="translate(-498 16)">
          <circle id="Ellipse_6-79" data-name="Ellipse 6" cx="1.5" cy="1.5" r="1.5" transform="translate(636 168)" fill="#aeaeae"/>
        </g>
        <g transform="translate(-475 16)">
          <circle id="Ellipse_6-80" data-name="Ellipse 6" cx="1.5" cy="1.5" r="1.5" transform="translate(636 168)" fill="#aeaeae"/>
        </g>
        <g transform="translate(-452 16)">
          <circle id="Ellipse_6-81" data-name="Ellipse 6" cx="1.5" cy="1.5" r="1.5" transform="translate(636 168)" fill="#aeaeae"/>
        </g>
      </g>
    </g>
    <rect id="Rectangle_9" data-name="Rectangle 9" width="1156" height="600" rx="300" transform="translate(932.666 743.595) rotate(-71)" fill="#f4f7fa"/>
    <rect id="Rectangle_10" data-name="Rectangle 10" width="1156" height="600" rx="300" transform="matrix(0.469, -0.883, 0.883, 0.469, 883.261, 664.258)" fill="#ff9247"/>
    <rect id="Rectangle_8" data-name="Rectangle 8" width="1156" height="600" rx="300" transform="translate(753.937 465.948) rotate(-30)" fill="#156af2"/>
  </g>
</svg>
